<svg width="40" height="38" viewBox="0 0 40 38" fill="none" xmlns="http://www.w3.org/2000/svg">
<path d="M14.2412 37.2308L14.295 37.181L14.3411 37.1312C14.3532 37.0969 14.3674 37.0637 14.3834 37.0313V35.7833V34.8847V34.6544C14.3526 32.147 14.3526 29.601 14.3526 27.1396C14.3526 25.0851 14.3526 22.3742 14.3834 19.6249C14.3834 19.4291 14.3834 18.1964 14.4142 17.3593L14.4488 15.8695H3.62753C2.98736 15.8336 2.35121 15.9922 1.80292 16.3246C1.25461 16.657 0.819602 17.1477 0.555534 17.7319C0.501694 17.8433 0.459643 17.9507 0.421071 18.0429L0.37875 18.1387L0.28286 18.4077V34.9197L0.474914 35.2577C0.505718 35.3075 0.536254 35.3729 0.570805 35.442C0.706076 35.716 0.872409 35.9737 1.06634 36.2099C1.64223 36.879 2.48762 37.2551 3.37021 37.2353H14.1798L14.2412 37.2308ZM11.4496 18.8221V19.4095V19.5938V19.6246C11.4188 22.3779 11.4188 25.0852 11.4188 27.1394C11.4188 29.4971 11.4188 31.9356 11.4456 34.3469H5.37837H3.2628C3.23977 34.3124 3.20522 34.251 3.17441 34.1894V18.9679C3.232 18.845 3.25879 18.7874 3.58905 18.7874L11.4494 18.7877V18.8337L11.4496 18.8221Z" fill="#101010"/>
<path d="M16.3629 36.9994C15.0701 37.017 13.8003 36.6545 12.7094 35.956L12.0001 35.5026V34.6558C12.0279 30.6426 12.0399 26.2927 12.0399 20.923V17.3113L12.0402 16.7052L12.4387 16.2677L12.9086 15.6538C13.3866 15.0811 13.831 14.4809 14.2392 13.8558C14.9881 12.6518 15.7132 11.3677 16.4144 10.1397C16.7092 9.626 17.0119 9.09218 17.3148 8.56646H17.315C17.3865 8.44581 17.4187 8.30529 17.4067 8.16531C17.3709 7.31037 17.3551 6.44762 17.3389 5.61704C17.3389 5.12744 17.3389 4.6177 17.307 4.12022V4.11994C17.2739 3.4089 17.4504 2.70373 17.8142 2.09323C18.1777 1.4827 18.7123 0.994205 19.351 0.688777C20.9361 -0.161363 22.822 -0.22801 24.4625 0.508222C25.4944 0.936803 26.2947 1.78977 26.6616 2.85182L27.032 3.82293C27.3666 4.70582 27.7093 5.61673 28.0241 6.53187C28.5332 8.13253 28.6049 9.84184 28.2311 11.48C28.1236 12.0337 28.0319 12.5877 27.9363 13.1616H28.8209H35.0521C35.7521 13.1579 36.448 13.2705 37.1116 13.4947C38.5131 13.9932 39.551 15.1975 39.8448 16.6649C39.8448 16.7049 39.8726 16.7693 39.8965 16.8334L39.9362 16.9577L40.0001 17.1906V19.0127L39.8409 19.2255C39.6867 19.8825 39.4168 20.5065 39.0439 21.0675C39.1559 21.4599 39.224 21.8639 39.247 22.2715C39.2734 23.3996 38.9427 24.5073 38.303 25.4339C38.3977 25.7609 38.4578 26.0971 38.4822 26.4372C38.5478 27.651 38.2207 28.8536 37.5499 29.8644C37.6796 30.4867 37.7161 31.1252 37.6574 31.7585C37.591 32.8553 37.1922 33.905 36.5147 34.7664C35.8372 35.6275 34.9137 36.2584 33.8688 36.5742C32.9126 36.8665 31.9157 37.002 30.9166 36.9756H27.0602H16.4071H16.3632L16.3629 36.9994ZM15.0323 33.7368H15.0321C15.4681 33.8921 15.9283 33.9669 16.3908 33.9574C19.9485 33.9372 23.562 33.9574 27.0637 33.9574H30.9124C31.5916 33.9826 32.2706 33.9 32.9242 33.7127C33.4005 33.5839 33.8235 33.3057 34.1314 32.918C34.4396 32.5302 34.6169 32.0538 34.6375 31.5575C34.6905 31.1351 34.6497 30.7062 34.518 30.3015C34.3115 29.6918 34.4254 29.0183 34.8206 28.5115C35.2591 27.9892 35.4892 27.3213 35.4662 26.6374C35.4281 26.3841 35.3642 26.1352 35.275 25.895C35.0563 25.249 35.186 24.5351 35.6174 24.0089C36.0128 23.5579 36.2324 22.9773 36.2349 22.3757C36.2137 22.1798 36.1751 21.9863 36.1195 21.7977C36.0756 21.6252 36.0278 21.4324 35.9881 21.2238C35.8486 20.6452 35.997 20.0343 36.3863 19.5864C36.694 19.2094 36.8913 18.7536 36.956 18.2702V17.6521C36.936 17.5838 36.9163 17.5116 36.8963 17.4315C36.709 16.693 36.3824 16.4845 36.0995 16.3801C35.7505 16.2687 35.3859 16.2144 35.0199 16.2194H28.8168H26.5418C25.9844 16.2804 25.433 16.0587 25.0706 15.6276C24.7082 15.1965 24.5817 14.6123 24.7329 14.0684C24.7888 13.7271 24.8444 13.3862 24.9002 13.045C25.0117 12.3468 25.1273 11.6243 25.2668 10.906C25.5363 9.79374 25.5019 8.629 25.1673 7.53499C24.8724 6.66414 24.5339 5.77731 24.2111 4.92237L23.8364 3.93113H23.8367C23.7603 3.65399 23.5599 3.42837 23.2948 3.32115C22.4872 2.9284 21.5415 2.9508 20.7531 3.38134C20.4752 3.46783 20.2967 3.74021 20.3267 4.03162C20.3267 4.54138 20.3506 5.05504 20.3587 5.54859C20.3587 6.35114 20.3907 7.21002 20.4265 8.03272H20.4262C20.4618 8.75408 20.2887 9.47071 19.9282 10.0953C19.6295 10.6129 19.3266 11.1428 19.0359 11.6523C18.3228 12.9044 17.5816 14.2005 16.8087 15.4569C16.341 16.1867 15.8299 16.8876 15.2789 17.5558L15.0599 17.8288V20.9268C15.0638 25.895 15.0557 29.9843 15.0318 33.7365L15.0323 33.7368Z" fill="#101010"/>
</svg>
