<svg width="41" height="44" viewBox="0 0 41 44" fill="none" xmlns="http://www.w3.org/2000/svg">
<path d="M7.4184 23.5114C7.4184 30.6978 13.269 36.5944 20.5014 36.5944C27.6877 36.5944 33.5844 30.7439 33.5844 23.5114C33.5844 16.2788 27.6878 10.4285 20.5014 10.4285C13.3149 10.4285 7.4184 16.325 7.4184 23.5114ZM26.9968 15.2655L25.4766 16.7857C24.9698 17.2924 24.9698 18.0756 25.4766 18.5363C25.707 18.7667 26.0293 18.9049 26.3519 18.9049C26.6746 18.9049 26.9969 18.7667 27.2273 18.5363L28.7475 17.0161C29.8992 18.4904 30.6823 20.287 30.9126 22.2677H28.7475C28.0566 22.2677 27.5036 22.8204 27.5036 23.5116C27.5036 24.2025 28.0563 24.7555 28.7475 24.7555H30.9126C30.6822 26.7362 29.8992 28.5331 28.7475 30.0071L27.2273 28.4869C26.7205 27.9802 25.9374 27.9802 25.4767 28.4869C24.9699 28.9937 24.9699 29.7768 25.4767 30.2375L26.9969 31.7577C25.5226 32.9094 23.726 33.6925 21.7453 33.9229V31.7577C21.7453 31.0669 21.1926 30.5139 20.5014 30.5139C19.8105 30.5139 19.2575 31.0666 19.2575 31.7577V33.9229C17.2768 33.6925 15.4798 32.9094 14.0059 31.7577L15.5261 30.2375C16.0328 29.7308 16.0328 28.9477 15.5261 28.4869C15.0193 27.9802 14.2362 27.9802 13.7755 28.4869L12.2552 30.0071C11.1036 28.5328 10.3204 26.7362 10.0901 24.7555H12.2552C12.9461 24.7555 13.4991 24.2028 13.4991 23.5116C13.4991 22.8207 12.9464 22.2677 12.2552 22.2677H10.0901C10.3205 20.287 11.1036 18.4901 12.2552 17.0161L13.7755 18.5363C14.0059 18.7667 14.3282 18.9049 14.6508 18.9049C14.9735 18.9049 15.2957 18.7667 15.5262 18.5363C16.0329 18.0296 16.0329 17.2464 15.5262 16.7857L14.006 15.2655C15.8026 13.8375 18.0599 12.9621 20.5015 12.9621C22.943 12.9621 25.2004 13.8375 26.997 15.2655H26.9968Z" fill="#101010"/>
<path d="M36.763 11.2577C36.3484 10.705 35.5653 10.6128 35.0124 11.0273C34.4597 11.4418 34.3674 12.2249 34.782 12.7779C37.1313 15.9103 38.3752 19.5957 38.3752 23.5115C38.3752 33.3698 30.3595 41.3854 20.5012 41.3854C10.6429 41.3854 2.6273 33.3697 2.6273 23.5115C2.6273 14.206 9.81365 6.55887 18.8889 5.72967L18.0599 6.55871C17.5531 7.06546 17.5531 7.84858 18.0599 8.30933C18.2903 8.53973 18.6126 8.67791 18.9352 8.67791C19.2578 8.67791 19.5801 8.53973 19.8106 8.30933L22.8511 5.26884C23.3578 4.76208 23.3578 3.97896 22.8511 3.51821L19.8106 0.47772C19.3038 -0.0290317 18.5207 -0.0290317 18.0599 0.47772C17.5532 0.984472 17.5532 1.76759 18.0599 2.22834L19.0275 3.19591C8.52427 3.93305 0.140106 12.7778 0.140106 23.5114C0.140106 34.7517 9.26134 43.8729 20.5016 43.8729C31.742 43.8729 40.8632 34.7517 40.8632 23.5114C40.8632 19.0429 39.4352 14.8048 36.7632 11.2576L36.763 11.2577Z" fill="#101010"/>
<path d="M20.5014 24.7552H24.3709C25.0618 24.7552 25.6148 24.2025 25.6148 23.5113C25.6148 22.8204 25.0621 22.2674 24.3709 22.2674H21.7449V16.7395C21.7449 16.0486 21.1922 15.4956 20.5011 15.4956C19.8102 15.4956 19.2572 16.0483 19.2572 16.7395V23.5113C19.2575 24.2022 19.8105 24.7552 20.5014 24.7552Z" fill="#101010"/>
</svg>
