<svg width="43" height="42" viewBox="0 0 43 42" fill="none" xmlns="http://www.w3.org/2000/svg">
<path d="M41.3913 4.64136C41.2598 2.7132 39.726 1.17972 37.7979 1.04795L24.3889 0.171625C23.2934 0.0838989 22.1979 0.522226 21.4093 1.26713L1.77785 20.9424C0.28804 22.4322 0.28804 24.886 1.77785 26.3762L16.0632 40.6615C16.8081 41.4065 17.7722 41.8008 18.78 41.8008C19.7878 41.8008 20.7518 41.4065 21.4968 40.6615L41.172 20.9863C41.9606 20.1977 42.3553 19.1022 42.2675 18.0067L41.3913 4.64136ZM39.2003 19.0582L19.525 38.7335C19.1307 39.1278 18.3858 39.1278 17.9912 38.7335L3.70578 24.4481C3.26745 24.0098 3.26745 23.3526 3.70578 22.9142L23.381 3.23896C23.6002 3.0198 23.8631 2.93207 24.1696 2.93207H24.2574L37.6663 3.80839C38.1921 3.8521 38.6304 4.29043 38.6741 4.81618L39.5505 18.2252C39.5508 18.5324 39.4193 18.8389 39.2002 19.0581L39.2003 19.0582Z" fill="#101010"/>
<path d="M21.5407 20.3289H20.2261C19.2183 20.3289 18.3856 19.4526 18.4734 18.4007C18.5611 17.4804 19.3938 16.8232 20.3139 16.8232H21.8914C22.4611 16.8232 22.9431 17.2175 23.0746 17.7873C23.1183 17.9187 23.2498 18.0501 23.4252 18.0501H25.1779C25.397 18.0501 25.5285 17.875 25.5285 17.6995C25.3533 15.9469 23.9072 14.5445 22.1542 14.4568V12.7041C22.1542 12.529 21.9791 12.3535 21.8036 12.3535H20.051C19.8758 12.3535 19.7004 12.5287 19.7004 12.7041V14.4568C17.5094 14.7637 15.8881 16.7355 16.107 19.0139C16.3261 21.2049 18.2542 22.7824 20.4452 22.7824H21.5845C22.5923 22.7824 23.4249 23.6588 23.3371 24.7106C23.2057 25.5872 22.3734 26.2445 21.453 26.2445H19.9192C19.3494 26.2445 18.8674 25.8502 18.7359 25.2804C18.6922 25.149 18.5608 25.0176 18.3853 25.0176H16.6327C16.4135 25.0176 16.2821 25.1927 16.2821 25.3682C16.4572 27.1208 17.9034 28.5232 19.6563 28.6109V30.3636C19.6563 30.5387 19.8315 30.7142 20.0069 30.7142H21.7596C21.9347 30.7142 22.1102 30.539 22.1102 30.3636V28.5669C23.9943 28.26 25.5281 26.8142 25.7036 24.8861C25.9665 22.4322 23.9946 20.3289 21.5407 20.3289Z" fill="#101010"/>
<path d="M33.934 8.5147C35.0635 9.64417 35.0635 11.4754 33.934 12.6048C32.8046 13.7343 30.9737 13.7343 29.8442 12.6048C28.7147 11.4754 28.7147 9.64417 29.8442 8.5147C30.9737 7.38524 32.8046 7.38524 33.934 8.5147Z" fill="#101010"/>
</svg>
