<svg width="41" height="40" viewBox="0 0 41 40" fill="none" xmlns="http://www.w3.org/2000/svg">
<path d="M34.5117 0.228516H6.4669C3.30247 0.228516 0.728569 2.80372 0.728569 5.96685V34.0103C0.728569 37.1747 3.30267 39.7486 6.4669 39.7486H34.5117C37.6748 39.7486 40.2489 37.1734 40.2489 34.0103V5.96685C40.2489 2.80372 37.6748 0.228516 34.5117 0.228516ZM37.8489 34.0114C37.8489 35.8521 36.3513 37.3497 34.5117 37.3497H6.4669C4.62617 37.3497 3.12857 35.8521 3.12857 34.0114V5.96657C3.12857 4.12584 4.62617 2.62824 6.4669 2.62824H34.5117C36.3524 2.62824 37.8489 4.12584 37.8489 5.96657V34.0114Z" fill="#101010"/>
<path d="M28.6843 17.978L27.6932 13.6028C27.2767 11.767 25.4756 10.328 23.5928 10.328H17.3877C15.5049 10.328 13.7035 11.7669 13.2873 13.6028L12.2962 17.978C11.3421 18.1305 10.6104 18.9511 10.6104 19.9473V24.2001C10.6104 25.3043 11.5056 26.2005 12.6107 26.2005H12.9852V27.4522C12.9852 28.0043 13.4341 28.4529 13.9859 28.4529H15.6528C16.2049 28.4529 16.6535 28.004 16.6535 27.4522V26.2005H24.3253V27.4522C24.3253 28.0043 24.7742 28.4529 25.326 28.4529H26.994C27.546 28.4529 27.9947 28.004 27.9947 27.4522V26.2005H28.3703C29.4744 26.2005 30.3706 25.304 30.3706 24.2001V19.9473C30.3703 18.9512 29.6385 18.1291 28.6844 17.978H28.6843ZM14.8191 23.9084C13.8063 23.9084 12.9843 23.0863 12.9843 22.0735C12.9843 21.0607 13.8063 20.2411 14.8191 20.2411C15.8319 20.2411 16.6526 21.0618 16.6526 22.0735C16.6539 23.0863 15.8319 23.9084 14.8191 23.9084ZM14.7626 17.9467L15.6267 14.1332C15.7936 13.3977 16.6323 12.7267 17.3871 12.7267H23.5923C24.3457 12.7267 25.1857 13.3974 25.3526 14.1319L26.2168 17.9467H14.7626ZM26.1592 23.9084C25.1464 23.9084 24.3243 23.0863 24.3243 22.0735C24.3243 21.0607 25.1464 20.2411 26.1592 20.2411C27.172 20.2411 27.994 21.0618 27.994 22.0735C27.994 23.0863 27.172 23.9084 26.1592 23.9084Z" fill="#101010"/>
</svg>
