<svg width="45" height="39" viewBox="0 0 45 39" fill="none" xmlns="http://www.w3.org/2000/svg">
<path d="M17.0425 17.3369C16.7412 17.3369 16.4419 17.2233 16.2146 16.9942C13.0603 13.8399 13.0603 8.70909 16.2146 5.55629C16.6726 5.09826 17.4139 5.09826 17.8718 5.55629C18.3299 6.01431 18.3299 6.75557 17.8718 7.21354C15.6336 9.45351 15.6336 13.0966 17.8718 15.3363C18.3299 15.7943 18.3299 16.5374 17.8718 16.9936C17.6412 17.2212 17.3419 17.3366 17.0425 17.3366V17.3369Z" fill="#101010"/>
<path d="M14.4036 19.977C14.1023 19.977 13.8031 19.8617 13.5757 19.6325C8.96769 15.0245 8.96769 7.52757 13.5757 2.91933C14.0337 2.4613 14.775 2.4613 15.2329 2.91933C15.691 3.37735 15.691 4.11861 15.2329 4.57658C11.5395 8.27005 11.5395 14.2816 15.2329 17.9746C15.691 18.4327 15.691 19.1739 15.2329 19.6319C15.0023 19.8614 14.7031 19.9767 14.4036 19.9767V19.977Z" fill="#101010"/>
<path d="M11.8306 22.5487C11.5293 22.5487 11.23 22.4352 11.0027 22.206C4.97534 16.1804 4.97534 6.37319 11.0027 0.343519C11.4589 -0.114507 12.202 -0.114507 12.6599 0.343519C13.118 0.799729 13.118 1.54281 12.6599 2.00077C7.54891 7.11544 7.54891 15.4352 12.6599 20.5466C13.118 21.0046 13.118 21.7476 12.6599 22.2057C12.4311 22.4352 12.1319 22.5487 11.8306 22.5487Z" fill="#101010"/>
<path d="M27.678 17.3368C27.3785 17.3368 27.0774 17.2233 26.8483 16.9942C26.3903 16.5361 26.3903 15.7931 26.8483 15.3369C29.0883 13.0987 29.0883 9.45386 26.8483 7.21413C26.3903 6.7561 26.3903 6.01307 26.8483 5.55688C27.3063 5.10067 28.0494 5.10067 28.5074 5.55688C31.6598 8.71293 31.6598 13.842 28.5074 16.9948C28.2786 17.2218 27.9772 17.3372 27.6781 17.3372L27.678 17.3368Z" fill="#101010"/>
<path d="M30.316 19.9772C30.0165 19.9772 29.7155 19.8619 29.4863 19.6327C29.0283 19.1765 29.0283 18.4335 29.4863 17.9755C33.1798 14.282 33.1798 8.27052 29.4863 4.57743C29.0283 4.1194 29.0283 3.37637 29.4863 2.92018C29.9444 2.46215 30.6874 2.46215 31.1454 2.92018C35.7517 7.52819 35.7517 15.0251 31.1454 19.6334C30.9166 19.8622 30.6153 19.9776 30.3161 19.9776L30.316 19.9772Z" fill="#101010"/>
<path d="M32.8899 22.5486C32.5904 22.5486 32.2894 22.4351 32.0602 22.2059C31.6022 21.7479 31.6022 21.0049 32.0602 20.5468C37.173 15.434 37.173 7.11398 32.0602 2.00101C31.6022 1.54299 31.6022 0.79995 32.0602 0.343764C32.5183 -0.114262 33.2613 -0.114262 33.7193 0.343764C39.7449 6.36934 39.7449 16.1766 33.7193 22.2062C33.4905 22.4351 33.1891 22.5486 32.89 22.5486L32.8899 22.5486Z" fill="#101010"/>
<path d="M40.447 38.0825H4.58974C2.58436 38.0825 0.952148 36.4503 0.952148 34.4431V30.0893C0.952148 28.0839 2.58436 26.4498 4.58974 26.4498H40.447C42.4506 26.4498 44.0846 28.082 44.0846 30.0893V34.4431C44.0846 36.4488 42.4524 38.0825 40.447 38.0825ZM4.58974 28.7965C3.87568 28.7965 3.29662 29.3753 3.29662 30.0896V34.4434C3.29662 35.1574 3.87722 35.7365 4.58974 35.7365H40.447C41.1592 35.7365 41.7383 35.1577 41.7383 34.4434V30.0896C41.7383 29.3755 41.1595 28.7965 40.447 28.7965H4.58974Z" fill="#101010"/>
<path d="M24.3213 28.7964H20.7142C20.0669 28.7964 19.5418 28.2717 19.5418 27.624L19.5421 12.4273C19.5421 10.7861 20.8767 9.45154 22.5179 9.45154C24.1592 9.45154 25.4937 10.7861 25.4937 12.4273V27.624C25.4937 28.2717 24.969 28.7964 24.3213 28.7964ZM21.8866 26.4499H23.1489L23.1492 12.428C23.1492 12.0799 22.866 11.7967 22.5179 11.7967C22.1698 11.7967 21.8866 12.0799 21.8866 12.428L21.8866 26.4499Z" fill="#101010"/>
<path d="M7.15056 35.258C5.50019 35.258 4.15845 33.9163 4.15845 32.2659C4.15845 30.6155 5.50019 29.2738 7.15056 29.2738C8.80093 29.2738 10.1427 30.6155 10.1427 32.2659C10.1427 33.9163 8.80093 35.258 7.15056 35.258ZM7.15056 31.6204C6.79338 31.6204 6.50322 31.9091 6.50322 32.266C6.50322 32.6231 6.79368 32.9115 7.15056 32.9115C7.50774 32.9115 7.79789 32.6228 7.79789 32.266C7.79819 31.9091 7.50774 31.6204 7.15056 31.6204Z" fill="#101010"/>
<path d="M27.6742 33.4316C27.3678 33.4316 27.061 33.3235 26.8446 33.0908C26.6299 32.8743 26.5037 32.5856 26.5037 32.2611C26.5037 31.9546 26.6299 31.6479 26.8446 31.4314C27.2953 30.9984 28.0529 30.9984 28.5037 31.4314C28.7202 31.6479 28.8464 31.9544 28.8464 32.2611C28.8464 32.5675 28.7202 32.8743 28.5037 33.0908C28.2893 33.3254 27.9826 33.4316 27.6743 33.4316H27.6742Z" fill="#101010"/>
<path d="M31.4252 33.4316C31.1006 33.4316 30.8119 33.3235 30.5955 33.0908C30.3609 32.8743 30.2546 32.5678 30.2546 32.2611C30.2546 31.9546 30.379 31.6479 30.5955 31.4314C31.0285 30.9984 31.8038 30.9984 32.2546 31.4314C32.4711 31.6479 32.5973 31.9544 32.5973 32.2611C32.5973 32.5857 32.4711 32.8743 32.2546 33.0908C32.0221 33.3254 31.732 33.4316 31.4252 33.4316H31.4252Z" fill="#101010"/>
<path d="M35.1608 33.4316C34.8543 33.4316 34.5657 33.3235 34.3311 33.0908C34.1146 32.8743 33.9884 32.5856 33.9884 32.2611C33.9884 31.9546 34.1146 31.6479 34.3492 31.4314C34.7822 30.9984 35.5576 30.9984 35.9905 31.4314C36.207 31.6479 36.3332 31.9544 36.3332 32.2611C36.3332 32.5675 36.2233 32.8743 36.0068 33.0908C35.774 33.3254 35.4835 33.4316 35.1608 33.4316Z" fill="#101010"/>
</svg>
