<svg width="37" height="43" viewBox="0 0 37 43" fill="none" xmlns="http://www.w3.org/2000/svg">
<path fill-rule="evenodd" clip-rule="evenodd" d="M18.2101 0.00116337C17.8605 0.0314111 17.5298 0.222594 17.339 0.504899L14.6718 4.46573C13.1746 6.69006 11.3439 7.79141 8.47153 9.29521C7.03555 10.0471 5.63131 10.9185 4.55255 12.2137C3.47379 13.5089 2.79263 15.2256 2.79263 17.3906C2.79263 18.623 3.08072 19.8023 3.60902 20.8997H1.44996C0.842 20.8997 0.288799 21.4294 0.288799 22.0115V25.5492C0.288799 26.1313 0.842041 26.661 1.44996 26.661H2.95597V40.7764H1.17793C0.564334 40.7678 0.000183105 41.3006 0.000183105 41.8881C0.000183105 42.4756 0.564293 43.0084 1.17793 42.9999H35.8224C36.436 43.0084 37.0002 42.4756 37.0002 41.8881C37.0002 41.3006 36.4361 40.7678 35.8224 40.7764H34.0444V26.661H35.5504C36.1584 26.661 36.7116 26.1313 36.7116 25.5492V22.0115C36.7116 21.4294 36.1583 20.8997 35.5504 20.8997H33.0285C33.5552 19.8016 33.8449 18.6211 33.8449 17.3906C33.8449 15.2259 33.1633 13.5088 32.0849 12.2137C31.0066 10.9184 29.6016 10.0471 28.166 9.29521C25.2951 7.79141 23.4661 6.68966 21.9657 4.46573L19.2984 0.504899C19.0868 0.195055 18.7054 -0.00116957 18.3187 0.00116337C18.2825 -0.000387789 18.2468 -0.000387789 18.2101 0.00116337ZM18.3192 3.16284L20.0067 5.68191C22.0366 8.69349 24.3887 9.85182 27.0415 11.2413C28.3681 11.9362 29.4983 12.6757 30.2711 13.6041C31.0437 14.5321 31.5228 15.6481 31.5228 17.3912C31.5228 18.6305 31.1265 19.8044 30.3797 20.9003H6.25804C5.50926 19.8028 5.11491 18.6282 5.11491 17.3912C5.11491 15.648 5.59371 14.532 6.36661 13.6041C7.13954 12.6761 8.26939 11.9362 9.59628 11.2413C12.2499 9.85182 14.604 8.69428 16.6311 5.68191L18.3192 3.16284ZM2.61151 23.1238H34.3894V24.4379H2.61151V23.1238ZM5.27879 26.6616H31.7222V40.7769H29.0187V36.6339C29.0187 33.9543 26.7128 31.7524 23.9205 31.7524C21.1237 31.7524 18.8403 33.9566 18.8403 36.6339V40.7769H18.1608V36.6339C18.1608 33.9562 15.8589 31.7524 13.0626 31.7524C10.2702 31.7524 7.98243 33.9543 7.98243 36.6339V40.7769H5.27899L5.27879 26.6616ZM13.0624 33.9753C14.5969 33.9753 15.8382 35.1639 15.8382 36.6331V40.7761H10.3041V36.6331C10.3041 35.1658 11.5354 33.9753 13.0624 33.9753ZM23.9203 33.9753C25.4476 33.9753 26.6961 35.1658 26.6961 36.6331V40.7761H21.162V36.6331C21.162 35.1638 22.3857 33.9753 23.9203 33.9753Z" fill="#101010"/>
</svg>
